<svg width="32" height="32" viewBox="0 0 32 32" fill="none" xmlns="http://www.w3.org/2000/svg">
<path d="M0 3.33333C0 1.49238 1.49238 0 3.33333 0H28.6667C30.5076 0 32 1.49238 32 3.33333V28.6667C32 30.5076 30.5076 32 28.6667 32H3.33333C1.49238 32 0 30.5076 0 28.6667V3.33333Z" fill="#89B9AD"/>
<path d="M20.4 20.4C19.586 20.4 18.9334 21.0527 18.9334 21.8667C18.9334 22.2557 19.0879 22.6287 19.3629 22.9038C19.638 23.1788 20.011 23.3333 20.4 23.3333C20.789 23.3333 21.1621 23.1788 21.4371 22.9038C21.7122 22.6287 21.8667 22.2557 21.8667 21.8667C21.8667 21.4777 21.7122 21.1046 21.4371 20.8296C21.1621 20.5545 20.789 20.4 20.4 20.4ZM8.66669 8.66667V10.1333H10.1334L12.7734 15.6993L11.776 17.496C11.666 17.7013 11.6 17.9433 11.6 18.2C11.6 18.589 11.7545 18.962 12.0296 19.2371C12.3047 19.5121 12.6777 19.6667 13.0667 19.6667H21.8667V18.2H13.3747C13.3261 18.2 13.2794 18.1807 13.2451 18.1463C13.2107 18.1119 13.1914 18.0653 13.1914 18.0167C13.1914 17.98 13.1987 17.9507 13.2134 17.9287L13.8734 16.7333H19.3367C19.8867 16.7333 20.3707 16.4253 20.62 15.978L23.2454 11.2333C23.2967 11.116 23.3334 10.9913 23.3334 10.8667C23.3334 10.6722 23.2561 10.4856 23.1186 10.3481C22.981 10.2106 22.7945 10.1333 22.6 10.1333H11.754L11.0647 8.66667M13.0667 20.4C12.2527 20.4 11.6 21.0527 11.6 21.8667C11.6 22.2557 11.7545 22.6287 12.0296 22.9038C12.3047 23.1788 12.6777 23.3333 13.0667 23.3333C13.4557 23.3333 13.8287 23.1788 14.1038 22.9038C14.3788 22.6287 14.5334 22.2557 14.5334 21.8667C14.5334 21.4777 14.3788 21.1046 14.1038 20.8296C13.8287 20.5545 13.4557 20.4 13.0667 20.4Z" fill="white"/>
</svg>
