<svg width="31" height="31" viewBox="0 0 31 31" fill="none" xmlns="http://www.w3.org/2000/svg">
<circle cx="15.5" cy="15.5" r="15.5" fill="#89B9AD"/>
<g clip-path="url(#clip0_35_521)">
<path d="M20.5 18.9375C20.7408 18.9376 20.9722 19.0304 21.1465 19.1965C21.3207 19.3627 21.4244 19.5895 21.436 19.8299C21.4475 20.0704 21.3661 20.3061 21.2086 20.4883C21.0512 20.6704 20.8296 20.7849 20.59 20.8081L20.5 20.8125H10.5C10.2592 20.8124 10.0278 20.7196 9.85351 20.5535C9.67926 20.3873 9.57562 20.1605 9.56405 19.9201C9.55248 19.6796 9.63387 19.4439 9.79136 19.2617C9.94885 19.0796 10.1704 18.9651 10.41 18.9419L10.5 18.9375H20.5ZM20.5 14.5625C20.7486 14.5625 20.9871 14.6613 21.1629 14.8371C21.3387 15.0129 21.4375 15.2514 21.4375 15.5C21.4375 15.7486 21.3387 15.9871 21.1629 16.1629C20.9871 16.3387 20.7486 16.4375 20.5 16.4375H10.5C10.2514 16.4375 10.0129 16.3387 9.83709 16.1629C9.66127 15.9871 9.5625 15.7486 9.5625 15.5C9.5625 15.2514 9.66127 15.0129 9.83709 14.8371C10.0129 14.6613 10.2514 14.5625 10.5 14.5625H20.5ZM20.5 10.1875C20.7486 10.1875 20.9871 10.2863 21.1629 10.4621C21.3387 10.6379 21.4375 10.8764 21.4375 11.125C21.4375 11.3736 21.3387 11.6121 21.1629 11.7879C20.9871 11.9637 20.7486 12.0625 20.5 12.0625H10.5C10.2514 12.0625 10.0129 11.9637 9.83709 11.7879C9.66127 11.6121 9.5625 11.3736 9.5625 11.125C9.5625 10.8764 9.66127 10.6379 9.83709 10.4621C10.0129 10.2863 10.2514 10.1875 10.5 10.1875H20.5Z" fill="white"/>
</g>
<defs>
<clipPath id="clip0_35_521">
<rect width="15" height="15" fill="white" transform="translate(8 8)"/>
</clipPath>
</defs>
</svg>
