<svg width="26" height="26" viewBox="0 0 26 26" fill="none" xmlns="http://www.w3.org/2000/svg">
<path d="M10.92 11.765C10.9742 11.4075 11.0933 11.0933 11.245 10.8225C11.3967 10.5516 11.6133 10.3241 11.8842 10.1508C12.1442 9.98829 12.4692 9.91246 12.87 9.90163C13.1192 9.91246 13.3467 9.95579 13.5525 10.0425C13.7692 10.14 13.9642 10.27 14.1158 10.4325C14.2675 10.595 14.3867 10.79 14.4842 11.0066C14.5817 11.2233 14.625 11.4616 14.6358 11.7H16.575C16.5533 11.1908 16.4558 10.725 16.2717 10.3025C16.0875 9.87996 15.8383 9.51163 15.5133 9.20829C15.1883 8.90496 14.7983 8.66663 14.3433 8.49329C13.8883 8.31996 13.39 8.24413 12.8375 8.24413C12.1333 8.24413 11.5158 8.36329 10.9958 8.61246C10.4758 8.86163 10.0425 9.18663 9.69582 9.60913C9.34916 10.0316 9.08916 10.5191 8.92666 11.0825C8.76416 11.6458 8.66666 12.2308 8.66666 12.8591V13.1516C8.66666 13.78 8.75332 14.365 8.91582 14.9283C9.07832 15.4916 9.33832 15.9791 9.68499 16.3908C10.0317 16.8025 10.465 17.1383 10.985 17.3766C11.505 17.615 12.1225 17.745 12.8267 17.745C13.3358 17.745 13.8125 17.6583 14.2567 17.4958C14.7008 17.3333 15.0908 17.1058 15.4267 16.8133C15.7625 16.5208 16.0333 16.185 16.2283 15.795C16.4233 15.405 16.5425 14.9933 16.5533 14.5491H14.6142C14.6033 14.7766 14.5492 14.9825 14.4517 15.1775C14.3542 15.3725 14.2242 15.535 14.0617 15.6758C13.8992 15.8166 13.715 15.925 13.4983 16.0008C13.2925 16.0766 13.0758 16.0983 12.8483 16.1091C12.4583 16.0983 12.1333 16.0225 11.8842 15.86C11.6133 15.6866 11.3967 15.4591 11.245 15.1883C11.0933 14.9175 10.9742 14.5925 10.92 14.235C10.8658 13.8775 10.8333 13.5091 10.8333 13.1516V12.8591C10.8333 12.48 10.8658 12.1225 10.92 11.765ZM13 2.16663C7.01999 2.16663 2.16666 7.01996 2.16666 13C2.16666 18.98 7.01999 23.8333 13 23.8333C18.98 23.8333 23.8333 18.98 23.8333 13C23.8333 7.01996 18.98 2.16663 13 2.16663ZM13 21.6666C8.22249 21.6666 4.33332 17.7775 4.33332 13C4.33332 8.22246 8.22249 4.33329 13 4.33329C17.7775 4.33329 21.6667 8.22246 21.6667 13C21.6667 17.7775 17.7775 21.6666 13 21.6666Z" fill="#4D4D4D"/>
</svg>
