<svg width="31" height="31" viewBox="0 0 31 31" fill="none" xmlns="http://www.w3.org/2000/svg">
<path d="M5.28379 23.1621H7.83784V28.3736L14.352 23.1621H20.6081C22.0167 23.1621 23.1622 22.0166 23.1622 20.608V10.3918C23.1622 8.98326 22.0167 7.83777 20.6081 7.83777H5.28379C3.87523 7.83777 2.72974 8.98326 2.72974 10.3918V20.608C2.72974 22.0166 3.87523 23.1621 5.28379 23.1621Z" fill="white"/>
<path d="M25.7162 2.72974H10.3919C8.98332 2.72974 7.83783 3.87523 7.83783 5.28379H23.1622C24.5707 5.28379 25.7162 6.42928 25.7162 7.83784V18.0541C27.1248 18.0541 28.2703 16.9086 28.2703 15.5V5.28379C28.2703 3.87523 27.1248 2.72974 25.7162 2.72974Z" fill="white"/>
</svg>
